<svg width="500" height="500" viewBox="0 0 500 500" fill="none" xmlns="http://www.w3.org/2000/svg">
<path d="M0 100C0 44.7715 44.7715 0 100 0H350C432.843 0 500 67.1573 500 150V400C500 455.228 455.228 500 400 500H150C67.1573 500 0 432.843 0 350V100Z" fill="black"/>
<path d="M96.0586 357L110.414 311.59H184.242L198.598 357H252.211L180.434 144.891H114.223L42.1523 357H96.0586ZM122.426 273.504L146.449 197.332H148.207L172.23 273.504H122.426ZM338.93 359.93C383.168 359.93 410.854 334.295 412.172 295.477H366.176C363.979 312.322 353.725 321.697 339.516 321.551C321.205 321.697 309.193 306.17 309.34 277.312C309.193 248.895 321.352 233.514 339.516 233.367C354.311 233.514 363.979 243.621 366.176 259.734H412.172C411 221.062 382.436 195.867 338.93 195.867C289.125 195.867 258.949 229.119 258.949 277.898C258.949 326.531 288.832 359.93 338.93 359.93Z" fill="white"/>
<circle cx="443" cy="336" r="21" fill="#FF2400"/>
</svg>
